<svg width="14" height="14" viewBox="0 0 14 14" fill="none" xmlns="http://www.w3.org/2000/svg">
<g clip-path="url(#clip0_1_376)">
<path d="M7.00002 12.25C10.8664 12.25 14 9.7043 14 6.5625C14 3.4207 10.8664 0.875 7.00002 0.875C3.13361 0.875 1.68023e-05 3.4207 1.68023e-05 6.5625C1.68023e-05 7.7957 0.484001 8.93594 1.30431 9.86836C1.25236 10.5383 0.992595 11.1344 0.719157 11.5883C0.568767 11.8398 0.415642 12.0422 0.303532 12.1789C0.246111 12.2473 0.202361 12.2992 0.169548 12.3348C0.153142 12.3512 0.142204 12.3648 0.134001 12.373L0.125798 12.3813C1.68029e-05 12.507 -0.0355301 12.693 0.0328293 12.857C0.101189 13.0211 0.259782 13.1277 0.437517 13.1277C1.22228 13.1277 2.01252 12.8844 2.66877 12.6C3.29494 12.3266 3.82814 12.0012 4.15353 11.7633C5.02306 12.0777 5.98556 12.2527 7.00002 12.2527V12.25ZM3.50002 7.4375C3.01603 7.4375 2.62502 7.04648 2.62502 6.5625C2.62502 6.07852 3.01603 5.6875 3.50002 5.6875C3.984 5.6875 4.37502 6.07852 4.37502 6.5625C4.37502 7.04648 3.984 7.4375 3.50002 7.4375ZM7.00002 7.4375C6.51603 7.4375 6.12502 7.04648 6.12502 6.5625C6.12502 6.07852 6.51603 5.6875 7.00002 5.6875C7.484 5.6875 7.87502 6.07852 7.87502 6.5625C7.87502 7.04648 7.484 7.4375 7.00002 7.4375ZM11.375 6.5625C11.375 7.04648 10.984 7.4375 10.5 7.4375C10.016 7.4375 9.62502 7.04648 9.62502 6.5625C9.62502 6.07852 10.016 5.6875 10.5 5.6875C10.984 5.6875 11.375 6.07852 11.375 6.5625Z" fill="#727272"/>
</g>
<defs>
<clipPath id="clip0_1_376">
<rect width="14" height="14" fill="white"/>
</clipPath>
</defs>
</svg>
