<svg width="27" height="27" viewBox="0 0 27 27" fill="none" xmlns="http://www.w3.org/2000/svg">
<path fill-rule="evenodd" clip-rule="evenodd" d="M17.4291 6.81531C17.649 6.7979 17.8682 6.85759 18.0489 6.98415C18.2297 7.11071 18.3607 7.29625 18.4196 7.5089C18.8156 8.96049 19.0684 10.4474 19.1746 11.9482C19.3146 14.0502 19.1435 16.6499 17.8071 18.5584C16.8274 19.9577 15.3319 20.9104 13.6497 21.207C11.9675 21.5036 10.2363 21.1199 8.83706 20.1401C7.43781 19.1603 6.48508 17.6648 6.18846 15.9826C5.89184 14.3004 6.27562 12.5693 7.25539 11.17C8.59177 9.26147 10.9761 8.21153 12.9997 7.6235C14.446 7.21011 15.9293 6.93927 17.4284 6.81485L17.4291 6.81531Z" fill="#1BA9A0"/>
</svg>
