<svg width="18" height="19" viewBox="0 0 18 19" fill="none" xmlns="http://www.w3.org/2000/svg">
<g clip-path="url(#clip0_1_149)">
<path d="M5.79727 1.36484C5.52656 0.710937 4.81289 0.36289 4.13086 0.549218L1.03711 1.39297C0.425391 1.56172 0 2.11719 0 2.75C0 11.4477 7.05234 18.5 15.75 18.5C16.3828 18.5 16.9383 18.0746 17.107 17.4629L17.9508 14.3691C18.1371 13.6871 17.7891 12.9734 17.1352 12.7027L13.7602 11.2965C13.1871 11.0574 12.5227 11.2227 12.1324 11.7043L10.7121 13.4375C8.23711 12.2668 6.2332 10.2629 5.0625 7.78789L6.7957 6.37109C7.27734 5.97734 7.44258 5.31641 7.20352 4.74336L5.79727 1.36836V1.36484Z" fill="#727272"/>
</g>
<defs>
<clipPath id="clip0_1_149">
<rect width="18" height="18" fill="white" transform="translate(0 0.5)"/>
</clipPath>
</defs>
</svg>
