<svg width="14" height="14" viewBox="0 0 14 14" fill="none" xmlns="http://www.w3.org/2000/svg">
<g clip-path="url(#clip0_1_343)">
<path d="M12.7559 2.28867L7.50586 0.101169C7.34594 0.0348273 7.1745 0.000679016 7.00137 0.000679016C6.82823 0.000679016 6.6568 0.0348273 6.49688 0.101169L1.24687 2.28867C0.757422 2.49101 0.4375 2.96953 0.4375 3.5C0.4375 8.92773 3.56836 12.6793 6.49414 13.8988C6.8168 14.0328 7.18047 14.0328 7.50312 13.8988C9.84648 12.9227 13.5625 9.55117 13.5625 3.5C13.5625 2.96953 13.2426 2.49101 12.7559 2.28867ZM7.00273 12.2035L7 1.78554L11.8098 3.78984C11.7195 7.92968 9.56484 10.9293 7.00273 12.2035Z" fill="#727272"/>
</g>
<defs>
<clipPath id="clip0_1_343">
<rect width="14" height="14" fill="white"/>
</clipPath>
</defs>
</svg>
