<svg width="18" height="19" viewBox="0 0 18 19" fill="none" xmlns="http://www.w3.org/2000/svg">
<g clip-path="url(#clip0_1_278)">
<path d="M12.709 0.542177C12.8848 0.616005 13.0113 0.774208 13.0465 0.960536L13.7461 4.7539L17.5395 5.44999C17.7258 5.48515 17.884 5.61171 17.9578 5.78749C18.0317 5.96327 18.0106 6.16366 17.9016 6.32186L15.7113 9.49999L17.9016 12.6746C18.0106 12.8328 18.0317 13.0332 17.9578 13.209C17.884 13.3848 17.7258 13.5113 17.5395 13.5465L13.7461 14.2461L13.0465 18.0394C13.0113 18.2258 12.8848 18.384 12.709 18.4578C12.5332 18.5316 12.3328 18.5105 12.1746 18.4016L9.00002 16.2113L5.82541 18.4016C5.66721 18.5105 5.46682 18.5316 5.29104 18.4578C5.11525 18.384 4.98869 18.2258 4.95354 18.0394L4.25393 14.2461L0.460567 13.5465C0.274239 13.5113 0.116036 13.3848 0.0422074 13.209C-0.0316207 13.0332 -0.010527 12.8328 0.0984574 12.6746L2.28869 9.49999L0.0984574 6.32538C-0.010527 6.16718 -0.0316207 5.96679 0.0422074 5.791C0.116036 5.61522 0.274239 5.48866 0.460567 5.4535L4.25393 4.7539L4.95354 0.960536C4.98869 0.774208 5.11525 0.616005 5.29104 0.542177C5.46682 0.468349 5.66721 0.489443 5.82541 0.598427L9.00002 2.78866L12.1746 0.598427C12.3328 0.489443 12.5332 0.468349 12.709 0.542177ZM12.375 9.49999C12.375 11.3633 10.8633 12.875 9.00002 12.875C7.13674 12.875 5.62502 11.3633 5.62502 9.49999C5.62502 7.63671 7.13674 6.12499 9.00002 6.12499C10.8633 6.12499 12.375 7.63671 12.375 9.49999ZM13.5 9.49999C13.5 7.01444 11.4856 4.99999 9.00002 4.99999C6.51447 4.99999 4.50002 7.01444 4.50002 9.49999C4.50002 11.9855 6.51447 14 9.00002 14C11.4856 14 13.5 11.9855 13.5 9.49999Z" fill="#1BA9A0"/>
</g>
<defs>
<clipPath id="clip0_1_278">
<rect width="18" height="18" fill="white" transform="translate(0 0.5)"/>
</clipPath>
</defs>
</svg>
