<svg width="14" height="14" viewBox="0 0 14 14" fill="none" xmlns="http://www.w3.org/2000/svg">
<g clip-path="url(#clip0_1_115)">
<path d="M9.66907 1.08211L8.45907 2.29211L11.7091 5.54211L12.9191 4.33211C13.5441 3.70711 13.5441 2.69461 12.9191 2.06961L11.9341 1.08211C11.3091 0.457108 10.2966 0.457108 9.67157 1.08211H9.66907ZM7.89407 2.85711L2.06657 8.68711C1.80657 8.94711 1.61657 9.26961 1.51157 9.62211L0.626572 12.6296C0.564072 12.8421 0.621572 13.0696 0.776572 13.2246C0.931572 13.3796 1.15907 13.4371 1.36907 13.3771L4.37657 12.4921C4.72907 12.3871 5.05157 12.1971 5.31157 11.9371L11.1441 6.10711L7.89407 2.85711Z" fill="white"/>
</g>
<defs>
<clipPath id="clip0_1_115">
<rect width="12.8" height="12.8" fill="white" transform="translate(0.601562 0.599609)"/>
</clipPath>
</defs>
</svg>
