<svg width="28" height="27" viewBox="0 0 28 27" fill="none" xmlns="http://www.w3.org/2000/svg">
<path fill-rule="evenodd" clip-rule="evenodd" d="M9.12597 7.50849C9.18483 7.29583 9.31589 7.1103 9.49664 6.98374C9.67738 6.85718 9.89655 6.79748 10.1165 6.8149C11.616 6.93931 13.0997 7.21022 14.5464 7.62375C16.5695 8.21112 18.9538 9.26106 20.2902 11.1696C21.27 12.5689 21.6537 14.3 21.3571 15.9822C21.0605 17.6644 20.1078 19.1599 18.7085 20.1397C17.3093 21.1194 15.5781 21.5032 13.8959 21.2066C12.2137 20.91 10.7182 19.9573 9.73845 18.558C8.40207 16.6495 8.23095 14.0498 8.37048 11.9472C8.4767 10.4467 8.72951 8.96018 9.12531 7.50895L9.12597 7.50849Z" fill="#1BA9A0"/>
</svg>
