<svg width="27" height="28" viewBox="0 0 27 28" fill="none" xmlns="http://www.w3.org/2000/svg">
<path fill-rule="evenodd" clip-rule="evenodd" d="M17.4291 20.611C17.649 20.6284 17.8682 20.5687 18.0489 20.4421C18.2297 20.3156 18.3607 20.1301 18.4196 19.9174C18.8156 18.4658 19.0684 16.9789 19.1746 15.4781C19.3146 13.3761 19.1435 10.7764 17.8071 8.86787C16.8274 7.46862 15.3319 6.51589 13.6497 6.21927C11.9675 5.92265 10.2363 6.30644 8.83706 7.28621C7.43781 8.26597 6.48508 9.76146 6.18846 11.4437C5.89184 13.1259 6.27562 14.857 7.25539 16.2563C8.59177 18.1648 10.9761 19.2148 12.9997 19.8028C14.446 20.2162 15.9293 20.487 17.4284 20.6114L17.4291 20.611Z" fill="#1BA9A0"/>
</svg>
