<svg width="28" height="28" viewBox="0 0 28 28" fill="none" xmlns="http://www.w3.org/2000/svg">
<path fill-rule="evenodd" clip-rule="evenodd" d="M9.12597 19.9179C9.18483 20.1306 9.31589 20.3161 9.49664 20.4426C9.67738 20.5692 9.89655 20.6289 10.1165 20.6115C11.616 20.4871 13.0997 20.2162 14.5464 19.8026C16.5695 19.2153 18.9538 18.1653 20.2902 16.2568C21.27 14.8575 21.6537 13.1264 21.3571 11.4442C21.0605 9.76196 20.1078 8.26647 18.7085 7.28671C17.3093 6.30694 15.5781 5.92316 13.8959 6.21978C12.2137 6.5164 10.7182 7.46913 9.73845 8.86838C8.40207 10.7769 8.23095 13.3766 8.37048 15.4792C8.4767 16.9797 8.72951 18.4662 9.12531 19.9174L9.12597 19.9179Z" fill="#1BA9A0"/>
</svg>
