<svg width="18" height="19" viewBox="0 0 18 19" fill="none" xmlns="http://www.w3.org/2000/svg">
<g clip-path="url(#clip0_1_185)">
<path d="M16.4004 3.44258L9.65039 0.630079C9.44478 0.544782 9.22436 0.500877 9.00176 0.500877C8.77915 0.500877 8.55874 0.544782 8.35313 0.630079L1.60312 3.44258C0.973828 3.70273 0.5625 4.31797 0.5625 5C0.5625 11.9785 4.58789 16.802 8.34961 18.3699C8.76445 18.5422 9.23203 18.5422 9.64687 18.3699C12.6598 17.1148 17.4375 12.7801 17.4375 5C17.4375 4.31797 17.0262 3.70273 16.4004 3.44258ZM9.00352 16.1902L9 2.7957L15.184 5.37266C15.068 10.6953 12.2977 14.552 9.00352 16.1902Z" fill="#727272"/>
</g>
<defs>
<clipPath id="clip0_1_185">
<rect width="18" height="18" fill="white" transform="translate(0 0.5)"/>
</clipPath>
</defs>
</svg>
